<?xml version="1.0" encoding="UTF-8"?>
<svg width="400" height="500" viewBox="0 0 400 500" fill="none" xmlns="http://www.w3.org/2000/svg">
  <ellipse cx="200" cy="320" rx="80" ry="100" fill="url(#bodyGradient)" stroke="url(#neonPurple)" stroke-width="3" />
  <rect x="160" y="280" width="80" height="60" rx="8" fill="url(#panelGradient)" stroke="#00FFFF" stroke-width="2" />
  <circle cx="180" cy="300" r="6" fill="#00FFFF" />
  <circle cx="220" cy="300" r="6" fill="#FF00FF" />
  <rect x="175" y="315" width="50" height="3" fill="#00FFFF" opacity="0.8" />
  <rect x="175" y="322" width="50" height="3" fill="#00FFFF" opacity="0.6" />
  <rect x="175" y="329" width="50" height="3" fill="#00FFFF" opacity="0.4" />
  <ellipse cx="130" cy="320" rx="25" ry="70" fill="url(#armGradient)" stroke="url(#neonPurple)" stroke-width="2" />
  <ellipse cx="270" cy="320" rx="25" ry="70" fill="url(#armGradient)" stroke="url(#neonPurple)" stroke-width="2" />
  <rect x="115" y="300" width="30" height="8" fill="#00FFFF" opacity="0.7" />
  <rect x="115" y="340" width="30" height="8" fill="#FF00FF" opacity="0.7" />
  <rect x="255" y="300" width="30" height="8" fill="#00FFFF" opacity="0.7" />
  <rect x="255" y="340" width="30" height="8" fill="#FF00FF" opacity="0.7" />
  <ellipse cx="130" cy="395" rx="20" ry="25" fill="url(#gloveGradient)" stroke="#00FFFF" stroke-width="2" />
  <ellipse cx="270" cy="395" rx="20" ry="25" fill="url(#gloveGradient)" stroke="#00FFFF" stroke-width="2" />
  <rect x="165" y="410" width="30" height="80" rx="15" fill="url(#legGradient)" stroke="url(#neonPurple)" stroke-width="2" />
  <rect x="205" y="410" width="30" height="80" rx="15" fill="url(#legGradient)" stroke="url(#neonPurple)" stroke-width="2" />
  <circle cx="180" cy="450" r="8" fill="#00FFFF" opacity="0.6" />
  <circle cx="220" cy="450" r="8" fill="#00FFFF" opacity="0.6" />
  <ellipse cx="180" cy="490" rx="22" ry="18" fill="url(#bootGradient)" stroke="#00FFFF" stroke-width="2" />
  <ellipse cx="220" cy="490" rx="22" ry="18" fill="url(#bootGradient)" stroke="#00FFFF" stroke-width="2" />
  <ellipse cx="200" cy="150" rx="70" ry="80" fill="url(#helmetGradient)" stroke="url(#neonPurple)" stroke-width="3" />
  <ellipse cx="200" cy="155" rx="55" ry="60" fill="url(#visorGradient)" stroke="#00FFFF" stroke-width="2" />
  <ellipse cx="185" cy="135" rx="20" ry="25" fill="#FFFFFF" opacity="0.3" />
  <ellipse cx="220" cy="145" rx="15" ry="20" fill="#FFFFFF" opacity="0.2" />
  <line x1="170" y1="140" x2="190" y2="140" stroke="#00FFFF" stroke-width="1" opacity="0.8" />
  <line x1="210" y1="150" x2="230" y2="150" stroke="#00FFFF" stroke-width="1" opacity="0.8" />
  <circle cx="200" cy="170" r="3" fill="#FF00FF" opacity="0.8" />
  <circle cx="185" cy="165" r="2" fill="#00FFFF" opacity="0.8" />
  <circle cx="215" cy="165" r="2" fill="#00FFFF" opacity="0.8" />
  <circle cx="150" cy="120" r="8" fill="#FF00FF" />
  <circle cx="250" cy="120" r="8" fill="#FF00FF" />
  <line x1="200" y1="70" x2="200" y2="50" stroke="#00FFFF" stroke-width="3" />
  <circle cx="200" cy="45" r="6" fill="#FF00FF" />
  <circle cx="200" cy="45" r="10" fill="#FF00FF" opacity="0.3" />
  <ellipse cx="200" cy="230" rx="50" ry="15" fill="url(#sealGradient)" stroke="#00FFFF" stroke-width="2" />
  <rect x="175" y="228" width="50" height="4" fill="#00FFFF" opacity="0.6" />
  <defs>
    <linearGradient id="bodyGradient" x1="0%" y1="0%" x2="0%" y2="100%">
      <stop offset="0%" stop-color="#9D00FF" />
      <stop offset="50%" stop-color="#7B00E6" />
      <stop offset="100%" stop-color="#5D00B8" />
    </linearGradient>
    <linearGradient id="helmetGradient" x1="0%" y1="0%" x2="0%" y2="100%">
      <stop offset="0%" stop-color="#B84DFF" />
      <stop offset="50%" stop-color="#9D00FF" />
      <stop offset="100%" stop-color="#7B00E6" />
    </linearGradient>
    <linearGradient id="visorGradient" x1="0%" y1="0%" x2="0%" y2="100%">
      <stop offset="0%" stop-color="#00FFFF" stop-opacity="0.6" />
      <stop offset="50%" stop-color="#0099FF" stop-opacity="0.7" />
      <stop offset="100%" stop-color="#0066CC" stop-opacity="0.8" />
    </linearGradient>
    <linearGradient id="panelGradient" x1="0%" y1="0%" x2="0%" y2="100%">
      <stop offset="0%" stop-color="#4A0090" />
      <stop offset="50%" stop-color="#3D0077" />
      <stop offset="100%" stop-color="#2D0055" />
    </linearGradient>
    <linearGradient id="armGradient" x1="0%" y1="0%" x2="0%" y2="100%">
      <stop offset="0%" stop-color="#7B00E6" />
      <stop offset="50%" stop-color="#5D00B8" />
      <stop offset="100%" stop-color="#4A0090" />
    </linearGradient>
    <linearGradient id="legGradient" x1="0%" y1="0%" x2="0%" y2="100%">
      <stop offset="0%" stop-color="#7B00E6" />
      <stop offset="50%" stop-color="#5D00B8" />
      <stop offset="100%" stop-color="#4A0090" />
    </linearGradient>
    <linearGradient id="gloveGradient" x1="0%" y1="0%" x2="0%" y2="100%">
      <stop offset="0%" stop-color="#5D00B8" />
      <stop offset="100%" stop-color="#3D0077" />
    </linearGradient>
    <linearGradient id="bootGradient" x1="0%" y1="0%" x2="0%" y2="100%">
      <stop offset="0%" stop-color="#4A0090" />
      <stop offset="100%" stop-color="#2D0055" />
    </linearGradient>
    <linearGradient id="sealGradient" x1="0%" y1="0%" x2="0%" y2="100%">
      <stop offset="0%" stop-color="#5D00B8" />
      <stop offset="100%" stop-color="#4A0090" />
    </linearGradient>
    <linearGradient id="neonPurple" x1="0%" y1="0%" x2="0%" y2="100%">
      <stop offset="0%" stop-color="#FF00FF" />
      <stop offset="50%" stop-color="#9D00FF" />
      <stop offset="100%" stop-color="#5D00B8" />
    </linearGradient>
  </defs>
</svg>