<?xml version="1.0" encoding="UTF-8"?>
<svg width="400" height="300" viewBox="0 0 400 300" fill="none" xmlns="http://www.w3.org/2000/svg">
  <path d="M120 250 Q80 200, 60 150 Q40 100, 50 50 Q55 20, 70 10 L85 30 Q75 60, 85 100 Q95 140, 110 180 Q120 210, 130 250 Z"
    fill="url(#purpleGradientLeft)" stroke="url(#neonPurple)" stroke-width="2"/>
  <path d="M280 250 Q320 200, 340 150 Q360 100, 350 50 Q345 20, 330 10 L315 30 Q325 60, 315 100 Q305 140, 290 180 Q280 210, 270 250 Z"
    fill="url(#purpleGradientRight)" stroke="url(#neonPurple)" stroke-width="2"/>
  <line x1="75" y1="40" x2="90" y2="50" stroke="#00FFFF" stroke-width="2" opacity="0.8" />
  <line x1="70" y1="80" x2="95" y2="95" stroke="#00FFFF" stroke-width="2" opacity="0.8" />
  <line x1="75" y1="120" x2="105" y2="140" stroke="#00FFFF" stroke-width="2" opacity="0.8" />
  <line x1="85" y1="160" x2="115" y2="185" stroke="#00FFFF" stroke-width="2" opacity="0.8" />
  <line x1="95" y1="200" x2="120" y2="225" stroke="#00FFFF" stroke-width="2" opacity="0.8" />
  <line x1="325" y1="40" x2="310" y2="50" stroke="#00FFFF" stroke-width="2" opacity="0.8" />
  <line x1="330" y1="80" x2="305" y2="95" stroke="#00FFFF" stroke-width="2" opacity="0.8" />
  <line x1="325" y1="120" x2="295" y2="140" stroke="#00FFFF" stroke-width="2" opacity="0.8" />
  <line x1="315" y1="160" x2="285" y2="185" stroke="#00FFFF" stroke-width="2" opacity="0.8" />
  <line x1="305" y1="200" x2="280" y2="225" stroke="#00FFFF" stroke-width="2" opacity="0.8" />
  <circle cx="77" cy="35" r="4" fill="#FF00FF" />
  <circle cx="72" cy="75" r="5" fill="#00FFFF" />
  <circle cx="77" cy="115" r="4" fill="#FF00FF" />
  <circle cx="87" cy="155" r="5" fill="#00FFFF" />
  <circle cx="97" cy="195" r="4" fill="#FF00FF" />
  <circle cx="323" cy="35" r="4" fill="#FF00FF" />
  <circle cx="328" cy="75" r="5" fill="#00FFFF" />
  <circle cx="323" cy="115" r="4" fill="#FF00FF" />
  <circle cx="313" cy="155" r="5" fill="#00FFFF" />
  <circle cx="303" cy="195" r="4" fill="#FF00FF" />
  <circle cx="70" cy="10" r="8" fill="#FF00FF" opacity="0.4" />
  <circle cx="70" cy="10" r="5" fill="#FFFFFF" opacity="0.8" />
  <circle cx="330" cy="10" r="8" fill="#FF00FF" opacity="0.4" />
  <circle cx="330" cy="10" r="5" fill="#FFFFFF" opacity="0.8" />
  <defs>
    <linearGradient id="purpleGradientLeft" x1="60" y1="10" x2="130" y2="250" gradientUnits="userSpaceOnUse">
      <stop offset="0%" stop-color="#9D00FF" />
      <stop offset="30%" stop-color="#7B00E6" />
      <stop offset="60%" stop-color="#5D00B8" />
      <stop offset="100%" stop-color="#4A0090" />
    </linearGradient>
    <linearGradient id="purpleGradientRight" x1="340" y1="10" x2="270" y2="250" gradientUnits="userSpaceOnUse">
      <stop offset="0%" stop-color="#9D00FF" />
      <stop offset="30%" stop-color="#7B00E6" />
      <stop offset="60%" stop-color="#5D00B8" />
      <stop offset="100%" stop-color="#4A0090" />
    </linearGradient>
    <linearGradient id="neonPurple" x1="0%" y1="0%" x2="0%" y2="100%">
      <stop offset="0%" stop-color="#FF00FF" />
      <stop offset="50%" stop-color="#9D00FF" />
      <stop offset="100%" stop-color="#5D00B8" />
    </linearGradient>
  </defs>
</svg>